<?xml version="1.0" encoding="utf-8"?>
<svg id="yr-logo" viewBox="0 0 24 24" xmlns="http://www.w3.org/2000/svg">
  <path
     d="M 6.5801303,17.755636 C 6.144856,17.258558 5.7887224,16.829427 5.7887224,16.802012 c 0,-0.02742 0.1738456,-0.144053 0.3863232,-0.259193 1.2248708,-0.663741 1.92239,-1.437509 2.0320354,-2.254164 0.045085,-0.335802 0.060305,-1.291096 0.020568,-1.291096 -0.013241,0 -0.1233936,0.09404 -0.244771,0.208973 C 7.7228546,13.452757 6.9792023,13.814846 6.4264661,13.96436 5.9668732,14.088681 4.9978667,14.09707 4.4321499,13.98163 2.2403516,13.534374 0.78038631,12.134233 0.35111651,10.067824 0.29452851,9.7954221 0.27644401,9.3344069 0.25978061,7.7394654 l -0.020777,-1.9887047 h 1.25402119 1.254021 l 0.017712,1.9262323 c 0.019581,2.1294684 0.019394,2.1278715 0.3199928,2.731396 0.5656636,1.135707 2.2537438,1.616456 3.7718672,1.074193 0.7135915,-0.254889 1.1609781,-0.691406 1.3268571,-1.294619 0.057313,-0.2084154 0.068261,-0.5841509 0.068261,-2.342715 V 5.7507607 H 9.5290941 10.80645 L 10.79126,10.17589 c -0.01483,4.319674 -0.01739,4.434059 -0.10742,4.799962 -0.375935,1.527955 -1.1955144,2.520427 -2.8172246,3.411525 l -0.4950737,0.272036 z"
     fill="#ffffff" />
  <path
     d="m 12.529133,13.341157 0.01456,-4.8207865 0.09864,-0.3540103 c 0.380225,-1.3647173 1.431452,-2.3581396 2.892203,-2.7331686 0.274493,-0.070473 0.4822,-0.07809 2.12943,-0.07809 1.588439,0 1.876629,0.00981 2.221111,0.075582 2.0052,0.382877 3.338551,1.5072152 3.812222,3.2146305 0.132285,0.4768401 0.159443,1.3339104 0.0601,1.8965209 -0.214629,1.215457 -0.827982,2.196708 -1.80138,2.881877 -0.355184,0.250013 -0.998119,0.568199 -1.334234,0.660309 -0.102814,0.02818 -0.186925,0.06487 -0.186925,0.08155 0,0.03963 0.531842,0.699031 0.991293,1.229055 0.601465,0.69385 0.783706,0.809843 1.272387,0.809843 h 0.287297 v 0.978734 0.978735 h -0.872656 c -0.934283,0 -1.157998,-0.03344 -1.437638,-0.214883 -0.08144,-0.05283 -0.826982,-0.888025 -1.656782,-1.855976 l -1.508729,-1.759912 -0.725709,0.0099 c -0.712076,0.0098 -0.730103,0.01225 -0.959644,0.13269 -0.261199,0.137013 -0.442557,0.313946 -0.590464,0.576054 -0.09679,0.171519 -0.09955,0.211983 -0.112324,1.643949 l -0.01307,1.468101 h -1.297113 -1.297114 z m 2.981357,-1.257538 c 0.569493,-0.187629 0.82585,-0.209909 2.419123,-0.210249 1.561513,-3.33e-4 1.759978,-0.01966 2.183127,-0.21257 0.661302,-0.301486 1.061584,-0.904757 1.139321,-1.7170895 0.0609,-0.6362927 -0.144464,-1.1889957 -0.582677,-1.5682427 -0.28028,-0.2425667 -0.573575,-0.3844244 -1.048205,-0.5069843 -0.329329,-0.08504 -0.451836,-0.091079 -1.913233,-0.09432 -1.554358,-0.00344 -1.562416,-0.00301 -1.793166,0.095736 -0.29108,0.1245708 -0.635015,0.4725296 -0.731153,0.7397082 -0.06033,0.1676514 -0.07064,0.4445577 -0.07064,1.8964753 0,0.935087 0.0057,1.700158 0.01266,1.700158 0.007,0 0.180142,-0.05518 0.384845,-0.122624 z"
     fill="#ffffff" />
</svg>